<svg xmlns="http://www.w3.org/2000/svg" viewBox="0 0 60 40" width="600" height="400" role="img"><title>Gosper glider gun (first frame)</title><rect width="60" height="40" style="fill:#ffffff"/><g><path style="fill:#216e39" d="M26 2h1v1h-1zM24 3h1v1h-1zM26 3h1v1h-1zM14 4h2v1h-2zM22 4h2v1h-2zM36 4h2v1h-2zM13 5h1v1h-1zM17 5h1v1h-1zM22 5h2v1h-2zM36 5h2v1h-2zM2 6h2v1h-2zM12 6h1v1h-1zM18 6h1v1h-1zM22 6h2v1h-2zM2 7h2v1h-2zM12 7h1v1h-1zM16 7h1v1h-1zM18 7h2v1h-2zM24 7h1v1h-1zM26 7h1v1h-1zM12 8h1v1h-1zM18 8h1v1h-1zM26 8h1v1h-1zM13 9h1v1h-1zM17 9h1v1h-1zM14 10h2v1h-2z"/></g></svg>