<svg xmlns="http://www.w3.org/2000/svg" viewBox="0 0 45 45" width="450" height="450" role="img"><title>Snark (first frame)</title><rect width="45" height="45" style="fill:#0d1117"/><g><path style="fill:#39d353" d="M7 2h2v1h-2zM12 2h2v1h-2zM7 3h2v1h-2zM11 3h1v1h-1zM13 3h3v1h-3zM11 4h1v1h-1zM16 4h1v1h-1zM7 5h4v1h-4zM12 5h2v1h-2zM16 5h1v1h-1zM7 6h1v1h-1zM10 6h1v1h-1zM12 6h1v1h-1zM14 6h1v1h-1zM16 6h2v1h-2zM10 7h1v1h-1zM12 7h1v1h-1zM14 7h1v1h-1zM16 7h1v1h-1zM11 8h2v1h-2zM14 8h1v1h-1zM16 8h1v1h-1zM15 9h1v1h-1zM1 11h2v1h-2zM2 12h1v1h-1zM10 12h2v1h-2zM2 13h1v1h-1zM4 13h1v1h-1zM10 13h2v1h-2zM3 14h2v1h-2zM13 21h2v1h-2zM4 22h2v1h-2zM13 22h1v1h-1zM3 23h1v1h-1zM5 23h1v1h-1zM14 23h3v1h-3zM5 24h1v1h-1zM16 24h1v1h-1z"/></g></svg>